# xmcd
#
# Track frame offsets:
#	150
#	11974
#	25320
#	35689
#	49128
#	61981
#	71302
#	82357
#	92790
#	104697
#	115000
#	127012
#	139838
#	149858
#	161287
#	172555
#	184649
#	194741
#	204341
#
# Disc length: 2861 seconds
#
# Revision: 0
# Processed by: cddbd v1.5.2PL0 Copyright (c) Steve Scherf et al.
# Submitted via: EasyCDDAExtractor 2010.3.0.0
#
DISCID=1a0b2b13
DTITLE=Various Artist - Best Of Butler and Mosby A Family Affair
DYEAR=1900
DGENRE=Country
TTITLE0=Butler Carl and Pearl - Honky Tonkitis
TTITLE1=Butler Carl and Pearl - Don't Let Me Cross Over
TTITLE2=Butler Carl and Pearl - Loving Arms
TTITLE3=Butler Carl and Pearl - Too Late To Try Again
TTITLE4=Butler Carl and Pearl - My Tears Don't Show
TTITLE5=Butler Carl and Pearl - I'm Hanging Up The Phone
TTITLE6=Butler Carl and Pearl - Forbidden Street
TTITLE7=Butler Carl and Pearl - We'd Destroy Each Other
TTITLE8=Butler Carl and Pearl - Just Thought I'd Let You Know
TTITLE9=Butler Carl and Pearl - Our Ship Of Love
TTITLE10=Butler Carl and Pearl - Little Pedro
TTITLE11=Butler Carl and Pearl - Punish Me Tomorrow
TTITLE12=Butler Carl and Pearl - I Never Got Over You
TTITLE13=Butler Carl and Pearl - We'll Sweep Out The Ashes In The Morning
TTITLE14=Mosby Johnny and Jonie - Don't Call Me From A Honky Tonk
TTITLE15=Mosby Johnny and Jonie - Trouble In My Arms
TTITLE16=Mosby Johnny and Jonie - Who's Been Cheatin' Who
TTITLE17=Mosby Johnny and Jonie - Keep Those Cards And Letters Coming
TTITLE18=Mosby Johnny and Jonie - How The Other Half Lives
EXTD=
EXTT0=
EXTT1=
EXTT2=
EXTT3=
EXTT4=
EXTT5=
EXTT6=
EXTT7=
EXTT8=
EXTT9=
EXTT10=
EXTT11=
EXTT12=
EXTT13=
EXTT14=
EXTT15=
EXTT16=
EXTT17=
EXTT18=
PLAYORDER=
